<svg width="122" height="118" viewBox="0 0 122 118" fill="none" xmlns="http://www.w3.org/2000/svg">
<path fill-rule="evenodd" clip-rule="evenodd" d="M30.5 14.0259L0 28.016V57.6989V87.3827L30.766 102.691L61.532 118L90.6194 103.536C106.618 95.5798 120.223 88.6745 120.853 88.1894C121.729 87.5158 122 80.3202 122 57.6998V28.0919L91.9586 14.0277C75.4364 6.29252 61.7109 -0.0196071 61.4586 4.57677e-05C61.2064 0.0196986 47.2755 6.33092 30.5 14.0259ZM82.6967 13.2201C93.9712 18.5353 106.228 24.2409 109.934 25.898L116.672 28.912L107.819 33.2401L98.9659 37.5682L85.4862 30.7219C78.0727 26.9566 69.9436 22.7785 67.421 21.4377C64.8985 20.0968 59.1498 17.0729 54.6468 14.7182L46.4582 10.4366L53.2709 7.04021C57.0171 5.17229 60.5588 3.6242 61.1404 3.59918C61.7219 3.57506 71.4223 7.9049 82.6967 13.2201ZM54.5945 18.5746C61.144 21.9227 72.6955 27.8141 80.2632 31.667C87.8308 35.5198 94.539 39.0609 95.1692 39.5362C95.9241 40.1052 96.3158 42.9504 96.3158 47.869V55.337L91.7596 57.5854C89.2544 58.8218 87.0007 59.8339 86.753 59.8339C86.5053 59.8339 86.1824 56.719 86.0348 52.9108L85.7669 45.9876L57.4189 32.0609L29.0718 18.1342L34.9452 15.3837C38.1759 13.8714 41.2387 12.601 41.7524 12.5617C42.2652 12.5215 48.0442 15.2274 54.5945 18.5746ZM79.6715 46.9417C79.8504 47.0935 75.8308 49.2536 70.738 51.7423L61.4788 56.267L33.4876 42.6457L5.4955 29.0245L15.3601 24.4392L25.2256 19.8538L52.2857 33.2598C67.1688 40.634 79.4926 46.7907 79.6715 46.9417ZM32.3346 45.8483L59.6241 58.8852V86.1946V113.505L31.8759 99.6631L4.12782 85.8212L3.88474 58.9201C3.75173 44.1251 3.95812 32.1976 4.34338 32.4156C4.72956 32.6344 17.3249 38.6786 32.3346 45.8483ZM118.331 59.1854V86.2304L109.605 90.4512C104.805 92.7729 100.678 94.673 100.432 94.673C100.186 94.673 99.985 93.0892 99.985 91.1525C99.985 89.2158 99.5969 87.3979 99.1227 87.1129C98.6475 86.8271 94.7261 88.3001 90.4084 90.386L82.5564 94.1781V99.1351V104.092L72.9248 108.757L63.2932 113.422L63.2978 86.4046L63.3015 59.3873L72.2157 54.9207C77.1187 52.4641 81.451 50.3202 81.8436 50.1567C82.2353 49.9923 82.5564 53.1082 82.5564 57.0798C82.5564 62.9498 82.8178 64.3005 83.9525 64.3005C84.7203 64.3005 88.6417 62.6881 92.6668 60.7174L99.985 57.1344V49.1133V41.0914L108.929 36.6623C113.848 34.2263 117.976 32.2119 118.102 32.1869C118.227 32.1619 118.331 44.3109 118.331 59.1854ZM96.3158 94.2112C96.3158 97.0447 95.9094 97.5235 91.7596 99.571C89.2544 100.807 86.9841 101.82 86.7145 101.82C86.4457 101.82 86.2256 100.496 86.2256 98.8778C86.2256 96.2247 86.698 95.7039 91.0413 93.5725C93.6896 92.2718 95.9608 91.1837 96.0865 91.1543C96.2121 91.1239 96.3158 92.4996 96.3158 94.2112Z" fill="#1A56DB"/>
</svg>
